<svg id="Triangles_lines_fix_" data-name="Triangles (lines fix)" xmlns="http://www.w3.org/2000/svg" viewBox="0 0 1280.38 941.21"><defs><style>.cls-1{fill:#fff;}.cls-2{fill:#f4f9f9;}.cls-3{fill:#282969;stroke:#282969;}.cls-3,.cls-4,.cls-5,.cls-6,.cls-7,.cls-8,.cls-9{stroke-miterlimit:10;}.cls-4{fill:#43beac;stroke:#43beac;}.cls-5{fill:#622467;stroke:#622467;}.cls-6{fill:#f26724;stroke:#f26724;}.cls-7{fill:#c83192;stroke:#c83192;}.cls-8{fill:#f5bc49;stroke:#f5bc49;}.cls-9{fill:#a3cf60;stroke:#a3cf60;}</style></defs><polygon class="cls-1" points="91.43 314.1 91.43 314.1 91.43 314.1 91.43 314.1"/><polygon class="cls-1" points="-91.45 627.22 91.43 627.22 -0.01 470.66 -91.45 627.22"/><polygon class="cls-1" points="182.87 470.66 182.87 470.66 182.87 470.66 182.87 470.66"/><polygon class="cls-1" points="91.43 0.99 91.43 0.99 91.43 0.99 91.43 0.99"/><polygon class="cls-1" points="182.87 157.54 182.87 157.54 182.87 157.55 182.87 157.54"/><polygon class="cls-2" points="182.87 783.78 182.87 783.78 182.87 783.78 182.87 783.78"/><polygon class="cls-2" points="91.43 627.22 91.43 627.22 91.43 627.22 91.43 627.22"/><polygon class="cls-2" points="91.43 940.34 91.43 940.34 91.43 940.34 91.43 940.34"/><polygon class="cls-1" points="914.39 157.55 914.39 157.55 914.39 157.55 914.39 157.55"/><polygon class="cls-1" points="1005.83 314.11 1005.83 314.11 1097.27 157.55 1097.27 157.55 914.39 157.55 914.39 157.55 1005.83 314.11"/><polygon class="cls-1" points="1280.15 470.67 1188.71 314.11 1097.27 470.67 1280.15 470.67"/><polygon class="cls-1" points="1005.83 314.11 1097.27 470.67 1097.27 470.67 1188.71 314.11 1188.71 314.11 1005.83 314.11 1005.83 314.11"/><polygon class="cls-1" points="640.07 314.11 640.07 314.11 731.51 157.55 731.51 157.55 548.63 157.55 548.63 157.55 640.07 314.11"/><polygon class="cls-1" points="731.51 157.55 731.51 157.55 731.51 157.55 731.51 157.55"/><polygon class="cls-1" points="822.95 314.11 822.95 314.11 914.39 157.55 914.39 157.55 731.51 157.55 731.51 157.55 822.95 314.11"/><polygon class="cls-1" points="1097.27 157.55 1097.27 157.55 1188.71 0.99 1188.71 0.99 1005.83 0.99 1005.83 0.99 1097.27 157.55"/><polygon class="cls-1" points="548.63 157.55 548.63 157.55 548.63 157.55 548.63 157.55"/><polygon class="cls-1" points="1280.15 157.55 1188.71 0.99 1097.27 157.55 1280.15 157.55"/><polygon class="cls-1" points="1097.27 157.55 1188.71 314.11 1188.71 314.11 1280.15 157.55 1280.15 157.55 1097.27 157.55 1097.27 157.55"/><polygon class="cls-1" points="1097.27 470.67 1188.71 627.22 1188.71 627.22 1280.15 470.67 1280.15 470.67 1097.27 470.67 1097.27 470.67"/><polygon class="cls-1" points="1005.83 627.22 1005.83 627.23 1097.27 783.78 1097.27 783.78 1188.71 627.23 1188.71 627.22 1005.83 627.22"/><polygon class="cls-2" points="1188.71 627.23 1188.71 627.22 1188.71 627.22 1188.71 627.23"/><polygon class="cls-1" points="1188.71 314.11 1097.27 157.55 1005.83 314.11 1188.71 314.11"/><polygon class="cls-1" points="457.19 314.11 548.63 157.55 548.63 157.55 365.75 157.55 365.75 157.55 457.19 314.11 457.19 314.11"/><polygon class="cls-1" points="1005.83 940.34 1188.71 940.34 1097.27 783.78 1005.83 940.34"/><polygon class="cls-3" points="182.87 470.66 91.43 314.1 -0.01 470.66 182.87 470.66"/><polygon class="cls-3" points="640.07 940.34 822.95 940.34 731.51 783.78 640.07 940.34"/><polygon class="cls-3" points="1097.27 783.78 1097.27 783.78 1188.71 940.34 1188.71 940.34 1280.15 783.78 1280.15 783.78 1097.27 783.78"/><polygon class="cls-2" points="1280.15 783.78 1280.15 783.78 1280.15 783.78 1280.15 783.78"/><polygon class="cls-1" points="365.75 470.67 365.75 470.67 182.87 470.67 182.87 470.67 274.31 627.23 274.31 627.23 365.75 470.67"/><polygon class="cls-2" points="274.31 627.23 274.31 627.23 274.31 627.23 274.31 627.23"/><polygon class="cls-1" points="548.63 783.78 365.75 783.78 365.75 783.78 457.19 940.34 457.19 940.34 548.63 783.78 548.63 783.78"/><polygon class="cls-2" points="365.75 783.78 365.75 783.78 365.75 783.78 365.75 783.78"/><polygon class="cls-1" points="548.63 157.55 457.19 314.11 640.07 314.11 548.63 157.55"/><polygon class="cls-1" points="457.19 314.11 457.19 314.11 457.19 314.11 457.19 314.11"/><polygon class="cls-1" points="731.51 157.55 640.07 314.11 822.95 314.11 731.51 157.55"/><polygon class="cls-1" points="365.75 470.67 365.75 470.67 365.75 470.67 365.75 470.67"/><polygon class="cls-1" points="914.39 157.55 822.95 314.11 1005.83 314.11 914.39 157.55"/><polygon class="cls-1" points="1005.83 314.11 1005.83 314.11 1005.83 314.11 1005.83 314.11"/><polygon class="cls-2" points="1005.83 627.23 1005.83 627.22 1005.83 627.22 1005.83 627.23"/><polygon class="cls-2" points="822.95 627.23 822.95 627.22 822.95 627.22 822.95 627.23"/><polygon class="cls-1" points="1097.27 470.67 1097.27 470.67 1097.27 470.67 1097.27 470.67"/><polygon class="cls-2" points="640.07 627.23 640.07 627.22 640.07 627.22 640.07 627.23"/><polygon class="cls-1" points="1188.71 627.22 1097.27 470.67 1005.83 627.22 1188.71 627.22"/><polygon class="cls-1" points="1097.27 157.55 1097.27 157.55 1097.27 157.55 1097.27 157.55"/><polygon class="cls-1" points="1188.71 314.11 1188.71 314.11 1188.71 314.11 1188.71 314.11"/><polygon class="cls-1" points="822.95 0.99 731.51 157.55 914.39 157.55 822.95 0.99"/><polygon class="cls-1" points="1280.15 470.67 1280.15 470.67 1280.15 470.67 1280.15 470.67"/><polygon class="cls-1" points="1005.83 0.99 914.39 157.55 1097.27 157.55 1005.83 0.99"/><polygon class="cls-2" points="914.39 783.78 914.39 783.78 914.39 783.78 914.39 783.78"/><polygon class="cls-2" points="731.51 783.78 731.51 783.78 731.51 783.78 731.51 783.78"/><polygon class="cls-2" points="548.63 783.78 548.63 783.78 548.63 783.78 548.63 783.78"/><polygon class="cls-2" points="1097.27 783.78 1097.27 783.78 1097.27 783.78 1097.27 783.78"/><polygon class="cls-1" points="914.39 470.67 914.39 470.67 1005.83 314.11 1005.83 314.11 822.95 314.11 822.95 314.11 914.39 470.67"/><polygon class="cls-1" points="548.63 470.67 640.07 314.11 640.07 314.11 457.19 314.11 457.19 314.11 548.63 470.67 548.63 470.67"/><polygon class="cls-1" points="640.07 314.11 640.07 314.11 640.07 314.11 640.07 314.11"/><polygon class="cls-1" points="731.51 470.67 731.51 470.67 822.95 314.11 822.95 314.11 640.07 314.11 640.07 314.11 731.51 470.67"/><polygon class="cls-1" points="822.95 314.11 822.95 314.11 822.95 314.11 822.95 314.11"/><polygon class="cls-2" points="457.19 627.22 457.19 627.23 457.19 627.22 457.19 627.22"/><polygon class="cls-4" points="1005.83 627.22 822.95 627.22 822.95 627.23 914.39 783.78 914.39 783.78 1005.83 627.23 1005.83 627.22"/><polygon class="cls-1" points="822.95 627.22 640.07 627.22 640.07 627.23 731.51 783.78 731.51 783.78 822.95 627.23 822.95 627.22"/><polygon class="cls-5" points="-0.01 157.55 91.43 314.1 91.43 314.1 182.87 157.55 182.87 157.54 -0.01 157.54 -0.01 157.55"/><polygon class="cls-6" points="914.39 783.78 1097.27 783.78 1005.83 627.23 914.39 783.78"/><polygon class="cls-5" points="640.07 627.22 457.19 627.22 457.19 627.23 548.63 783.78 548.63 783.78 640.07 627.23 640.07 627.22"/><polygon class="cls-1" points="1005.83 0.99 1005.83 0.99 1005.83 0.99 1005.83 0.99"/><polygon class="cls-1" points="822.95 314.11 731.51 470.67 914.39 470.67 822.95 314.11"/><polygon class="cls-1" points="914.39 470.67 914.39 470.67 914.39 470.67 914.39 470.67"/><polygon class="cls-1" points="731.51 470.67 731.51 470.67 731.51 470.67 731.51 470.67"/><polygon class="cls-1" points="640.07 314.11 548.63 470.67 731.51 470.67 640.07 314.11"/><polygon class="cls-1" points="548.63 470.67 548.63 470.67 548.63 470.67 548.63 470.67"/><polygon class="cls-1" points="822.95 627.22 1005.83 627.22 914.39 470.67 822.95 627.22"/><polygon class="cls-1" points="1097.27 470.67 1005.83 314.11 914.39 470.67 1097.27 470.67"/><polygon class="cls-1" points="914.39 470.67 731.51 470.67 731.51 470.67 822.95 627.22 822.95 627.22 914.39 470.67 914.39 470.67"/><polygon class="cls-1" points="731.51 470.67 548.63 470.67 548.63 470.67 640.07 627.22 640.07 627.22 731.51 470.67 731.51 470.67"/><polygon class="cls-6" points="-91.45 0.99 -0.01 157.54 -0.01 157.54 91.43 0.99 91.43 0.99 -91.45 0.99 -91.45 0.99"/><polygon class="cls-6" points="-91.45 940.34 91.43 940.34 -0.01 783.78 -91.45 940.34"/><polygon class="cls-7" points="365.75 470.67 457.19 314.11 457.19 314.11 274.31 314.11 274.31 314.11 365.75 470.67 365.75 470.67"/><polygon class="cls-6" points="457.19 627.23 457.19 627.22 274.31 627.23 274.31 627.23 365.75 783.78 365.75 783.78 457.19 627.23"/><polygon class="cls-6" points="640.07 627.22 822.95 627.22 731.51 470.67 640.07 627.22"/><polygon class="cls-2" points="91.43 940.34 91.43 940.34 91.43 940.34 91.43 940.34"/><polygon class="cls-1" points="640.07 0.99 548.63 157.55 731.51 157.55 640.07 0.99"/><polygon class="cls-7" points="1097.27 783.78 914.39 783.78 914.39 783.78 1005.83 940.34 1005.83 940.34 1097.27 783.78 1097.27 783.78"/><polygon class="cls-7" points="457.19 940.34 640.07 940.34 548.63 783.78 457.19 940.34"/><polygon class="cls-7" points="548.63 470.67 548.63 470.67 365.75 470.67 365.75 470.67 457.19 627.22 457.19 627.22 548.63 470.67"/><polygon class="cls-1" points="914.39 157.55 914.39 157.55 1005.83 0.99 1005.83 0.99 822.95 0.99 822.95 0.99 914.39 157.55"/><polygon class="cls-2" points="274.31 940.34 274.31 940.34 274.31 940.34 274.31 940.34"/><polygon class="cls-2" points="91.43 627.23 91.43 627.23 91.43 627.23 91.43 627.23"/><polygon class="cls-2" points="182.87 783.78 182.87 783.78 182.87 783.78 182.87 783.78"/><polygon class="cls-1" points="274.31 627.23 274.31 627.23 91.43 627.23 91.43 627.23 182.87 783.78 182.87 783.78 274.31 627.23"/><polygon class="cls-1" points="548.63 157.55 548.63 157.55 640.07 0.99 640.07 0.99 457.19 0.99 457.19 0.99 548.63 157.55"/><polygon class="cls-1" points="640.07 0.99 640.07 0.99 640.07 0.99 640.07 0.99"/><polygon class="cls-1" points="457.19 0.99 457.19 0.99 457.19 0.99 457.19 0.99"/><polygon class="cls-1" points="822.95 0.99 822.95 0.99 822.95 0.99 822.95 0.99"/><polygon class="cls-1" points="731.51 157.55 731.51 157.55 822.95 0.99 822.95 0.99 640.07 0.99 640.07 0.99 731.51 157.55"/><polygon class="cls-1" points="365.75 157.55 457.19 0.99 457.19 0.99 274.31 0.99 274.31 0.99 365.75 157.55 365.75 157.55"/><polygon class="cls-8" points="182.87 157.54 91.43 0.99 -0.01 157.54 182.87 157.54"/><polygon class="cls-8" points="-0.01 783.78 182.87 783.78 91.43 627.22 -0.01 783.78"/><polygon class="cls-8" points="914.39 783.78 731.51 783.78 731.51 783.78 822.95 940.34 822.95 940.34 914.39 783.78 914.39 783.78"/><polygon class="cls-8" points="274.31 627.23 457.19 627.22 365.75 470.67 274.31 627.23"/><polygon class="cls-8" points="1280.15 783.78 1188.71 627.23 1097.27 783.78 1280.15 783.78"/><polygon class="cls-1" points="457.19 314.11 365.75 470.67 548.63 470.67 457.19 314.11"/><polygon class="cls-8" points="182.87 470.67 274.31 314.11 274.31 314.11 91.43 314.11 91.43 314.11 182.87 470.67 182.87 470.67"/><polygon class="cls-1" points="274.31 0.99 182.87 157.55 365.75 157.55 274.31 0.99"/><polygon class="cls-1" points="274.31 314.11 365.75 157.55 365.75 157.55 182.87 157.55 182.87 157.55 274.31 314.11 274.31 314.11"/><polygon class="cls-1" points="91.43 940.34 274.31 940.34 182.87 783.78 91.43 940.34"/><polygon class="cls-1" points="274.31 0.99 274.31 0.99 274.31 0.99 274.31 0.99"/><polygon class="cls-1" points="182.87 157.55 182.87 157.55 182.87 157.55 182.87 157.55"/><polygon class="cls-1" points="91.43 314.11 91.43 314.11 91.43 314.11 91.43 314.11"/><polygon class="cls-2" points="457.19 940.34 457.19 940.34 457.19 940.34 457.19 940.34"/><polygon class="cls-1" points="274.31 940.34 457.19 940.34 365.75 783.78 274.31 940.34"/><polygon class="cls-2" points="640.07 940.34 640.07 940.34 640.07 940.34 640.07 940.34"/><polygon class="cls-2" points="1005.83 940.34 1005.83 940.34 1005.83 940.34 1005.83 940.34"/><polygon class="cls-2" points="822.95 940.34 822.95 940.34 822.95 940.34 822.95 940.34"/><polygon class="cls-1" points="365.75 157.55 365.75 157.55 365.75 157.55 365.75 157.55"/><polygon class="cls-2" points="1188.71 940.34 1188.71 940.34 1188.71 940.34 1188.71 940.34"/><polygon class="cls-1" points="274.31 314.11 274.31 314.11 274.31 314.11 274.31 314.11"/><polygon class="cls-9" points="-91.45 314.1 -91.45 314.1 -0.01 470.66 -0.01 470.66 91.43 314.1 91.43 314.1 -91.45 314.1"/><polygon class="cls-9" points="91.43 314.1 -0.01 157.55 -91.45 314.1 91.43 314.1"/><polygon class="cls-9" points="91.43 627.22 -91.45 627.22 -91.45 627.22 -0.01 783.78 -0.01 783.78 91.43 627.22 91.43 627.22"/><polygon class="cls-9" points="822.95 940.34 1005.83 940.34 914.39 783.78 822.95 940.34"/><polygon class="cls-9" points="274.31 314.11 182.87 470.67 365.75 470.67 274.31 314.11"/><polygon class="cls-9" points="365.75 157.55 274.31 314.11 457.19 314.11 365.75 157.55"/><polygon class="cls-9" points="914.39 470.67 1005.83 627.22 1005.83 627.22 1097.27 470.67 1097.27 470.67 914.39 470.67 914.39 470.67"/><polygon class="cls-9" points="365.75 783.78 548.63 783.78 457.19 627.23 365.75 783.78"/><polygon class="cls-9" points="365.75 783.78 365.75 783.78 182.87 783.78 182.87 783.78 274.31 940.34 274.31 940.34 365.75 783.78"/><polygon class="cls-9" points="182.87 783.78 365.75 783.78 274.31 627.23 182.87 783.78"/><polygon class="cls-1" points="182.87 470.67 182.87 470.67 182.87 470.67 182.87 470.67"/><polygon class="cls-4" points="-0.01 470.66 -0.01 470.66 91.43 627.22 91.43 627.22 182.87 470.66 182.87 470.66 -0.01 470.66"/><polygon class="cls-4" points="-0.01 783.78 -0.01 783.78 91.43 940.34 91.43 940.34 182.87 783.78 182.87 783.78 -0.01 783.78"/><polygon class="cls-4" points="731.51 783.78 548.63 783.78 548.63 783.78 640.07 940.34 640.07 940.34 731.51 783.78 731.51 783.78"/><polygon class="cls-4" points="731.51 783.78 914.39 783.78 822.95 627.23 731.51 783.78"/><polygon class="cls-4" points="548.63 783.78 731.51 783.78 640.07 627.23 548.63 783.78"/><polygon class="cls-4" points="457.19 627.22 640.07 627.22 548.63 470.67 457.19 627.22"/><polygon class="cls-4" points="182.87 157.55 274.31 0.99 274.31 0.99 91.43 0.99 91.43 0.99 182.87 157.55 182.87 157.55"/><polygon class="cls-4" points="182.87 157.55 91.43 314.11 274.31 314.11 182.87 157.55"/><polygon class="cls-4" points="91.43 627.23 274.31 627.23 182.87 470.67 91.43 627.23"/><polygon class="cls-1" points="1280.15 157.55 1280.15 157.55 1280.15 157.55 1280.15 157.55"/><polygon class="cls-1" points="1188.71 0.99 1188.71 0.99 1188.71 0.99 1188.71 0.99"/><polygon class="cls-1" points="457.19 0.99 365.75 157.55 548.63 157.55 457.19 0.99"/><polygon class="cls-1" points="91.43 0.99 91.43 0.99 91.43 0.99 91.43 0.99"/></svg>