<svg id="Triangles_lines_fix_" data-name="Triangles (lines fix)" xmlns="http://www.w3.org/2000/svg" viewBox="0 0 1006.12 1251.69"><defs><style>.cls-1{fill:#fff;}.cls-2{fill:#f5bc49;stroke:#f5bc49;}.cls-2,.cls-4,.cls-5,.cls-6,.cls-7{stroke-miterlimit:10;}.cls-3{fill:#f4f9f9;}.cls-4{fill:#f26724;stroke:#f26724;}.cls-5{fill:#c83192;stroke:#c83192;}.cls-6{fill:#43beac;stroke:#43beac;}.cls-7{fill:#a3cf60;stroke:#a3cf60;}</style></defs><polygon class="cls-1" points="1006.03 313.07 1006.03 313.07 1006.03 313.07 1006.03 313.07"/><polygon class="cls-1" points="1006.03 626.18 1006.03 626.18 1006.03 626.18 1006.03 626.18"/><polygon class="cls-1" points="1006.04 939.3 1006.03 939.3 1006.03 939.3 1006.04 939.3"/><polygon class="cls-1" points="457.39 939.3 457.4 939.3 457.39 939.3 457.39 939.3"/><polygon class="cls-1" points="640.27 939.3 640.28 939.3 640.27 939.3 640.27 939.3"/><polygon class="cls-1" points="823.15 939.3 823.16 939.3 823.15 939.3 823.15 939.3"/><polygon class="cls-1" points="914.6 782.74 914.59 782.74 914.59 782.74 914.6 782.74"/><polygon class="cls-1" points="274.51 939.3 274.52 939.3 274.52 939.3 274.51 939.3"/><polygon class="cls-1" points="823.15 313.07 823.15 313.07 823.15 313.07 823.15 313.07"/><polygon class="cls-1" points="731.71 782.74 731.72 782.74 731.72 782.74 731.71 782.74"/><polygon class="cls-1" points="914.6 469.63 914.59 469.63 914.59 469.63 914.6 469.63"/><polygon class="cls-1" points="365.95 1095.86 365.96 1095.86 365.95 1095.86 365.95 1095.86"/><polygon class="cls-1" points="823.15 626.18 823.15 626.18 823.15 626.18 823.15 626.18"/><polygon class="cls-1" points="731.71 1095.86 731.72 1095.86 731.72 1095.86 731.71 1095.86"/><polygon class="cls-1" points="914.59 1095.86 914.6 1095.86 914.59 1095.86 914.59 1095.86"/><polygon class="cls-1" points="548.83 1095.86 548.84 1095.86 548.84 1095.86 548.83 1095.86"/><polygon class="cls-2" points="274.52 939.3 274.51 939.3 183.08 1095.86 183.08 1095.86 365.95 1095.86 365.95 1095.86 274.52 939.3"/><polygon class="cls-2" points="640.28 939.3 640.27 939.3 548.84 1095.86 548.84 1095.86 731.71 1095.86 731.72 1095.86 640.28 939.3"/><polygon class="cls-2" points="365.96 1095.86 365.95 1095.86 274.52 1252.42 274.52 1252.42 457.39 1252.42 457.39 1252.42 365.96 1095.86"/><polygon class="cls-2" points="1006.03 1252.42 1097.47 1095.86 914.6 1095.86 1006.03 1252.42"/><polygon class="cls-3" points="914.59 156.51 914.59 156.51 914.6 156.51 914.59 156.51"/><polygon class="cls-4" points="548.84 1095.86 640.27 939.3 457.4 939.3 548.84 1095.86"/><polygon class="cls-4" points="914.6 156.51 1097.47 156.51 1097.47 156.51 1006.03 -0.05 1006.03 -0.05 914.59 156.51 914.6 156.51"/><polygon class="cls-4" points="823.15 1252.42 914.59 1095.86 731.72 1095.86 823.15 1252.42"/><polygon class="cls-1" points="91.64 939.3 91.64 939.3 91.64 939.3 91.64 939.3"/><polygon class="cls-5" points="914.59 782.74 1006.03 626.18 823.15 626.18 914.59 782.74"/><polygon class="cls-5" points="457.4 939.3 457.39 939.3 365.95 1095.86 365.96 1095.86 548.83 1095.86 548.84 1095.86 457.4 939.3"/><polygon class="cls-5" points="823.16 939.3 823.15 939.3 731.72 1095.86 731.72 1095.86 914.59 1095.86 914.59 1095.86 823.16 939.3"/><polygon class="cls-5" points="1097.47 156.51 914.6 156.51 1006.03 313.07 1097.47 156.51"/><polygon class="cls-5" points="457.39 1252.42 548.83 1095.86 365.96 1095.86 457.39 1252.42"/><polygon class="cls-6" points="914.59 469.63 914.6 469.63 1097.47 469.63 1097.47 469.63 1006.03 313.07 1006.03 313.07 914.59 469.63"/><polygon class="cls-6" points="1097.47 469.63 914.6 469.63 1006.03 626.18 1097.47 469.63"/><polygon class="cls-6" points="365.95 1095.86 457.39 939.3 274.52 939.3 365.95 1095.86"/><polygon class="cls-6" points="731.72 1095.86 731.71 1095.86 640.27 1252.42 640.28 1252.42 823.15 1252.42 823.15 1252.42 731.72 1095.86"/><polygon class="cls-6" points="731.72 1095.86 823.15 939.3 640.28 939.3 731.72 1095.86"/><polygon class="cls-6" points="1006.03 939.3 914.59 1095.86 914.6 1095.86 1097.47 1095.86 1097.47 1095.86 1006.04 939.3 1006.03 939.3"/><polygon class="cls-6" points="91.81 1252.34 183.25 1095.78 0.38 1095.78 91.81 1252.34"/><polygon class="cls-1" points="183.07 1095.86 183.08 1095.86 183.08 1095.86 183.07 1095.86"/><polygon class="cls-7" points="823.15 313.07 1006.03 313.07 1006.03 313.07 914.6 156.51 914.59 156.51 823.15 313.07 823.15 313.07"/><polygon class="cls-7" points="823.15 939.3 914.59 782.74 731.72 782.74 823.15 939.3"/><polygon class="cls-7" points="914.59 1095.86 1006.03 939.3 823.16 939.3 914.59 1095.86"/><polygon class="cls-1" points="183.07 1095.85 183.07 1095.85 183.07 1095.85 183.07 1095.85"/><polygon class="cls-1" points="91.64 939.3 91.63 939.29 91.63 939.3 91.64 939.3"/></svg>