<svg xmlns="http://www.w3.org/2000/svg" viewBox="0 0 1373.34 941.34"><defs><style>.cls-1{fill:#fff;}.cls-2{fill:#f4f9f9;}.cls-3{fill:#282969;stroke:#282969;}.cls-3,.cls-4,.cls-5,.cls-6,.cls-7,.cls-8,.cls-9{stroke-miterlimit:10;}.cls-4{fill:#43beac;stroke:#43beac;}.cls-5{fill:#622467;stroke:#622467;}.cls-6{fill:#f26724;stroke:#f26724;}.cls-7{fill:#c83192;stroke:#c83192;}.cls-8{fill:#f5bc49;stroke:#f5bc49;}.cls-9{fill:#a3cf60;stroke:#a3cf60;}</style></defs><g id="Layer_2" data-name="Layer 2"><g id="Triangles_lines_fix_" data-name="Triangles (lines fix)"><polygon class="cls-1" points="1189.59 314.11 1189.59 314.11 1189.59 314.11 1189.59 314.11"/><polygon class="cls-1" points="1098.15 470.67 1098.15 470.67 1098.15 470.67 1098.15 470.67"/><polygon class="cls-1" points="1372.47 0.99 1372.47 0.99 1372.47 0.99 1372.47 0.99"/><polygon class="cls-1" points="1372.47 314.11 1372.47 314.11 1372.47 314.11 1372.47 314.11"/><polygon class="cls-1" points="1281.03 157.55 1281.03 157.55 1281.03 157.55 1281.03 157.55"/><polygon class="cls-1" points="1189.59 0.99 1189.59 0.99 1189.59 0.99 1189.59 0.99"/><polygon class="cls-1" points="1098.15 157.55 1098.15 157.55 1098.15 157.55 1098.15 157.55"/><polygon class="cls-1" points="1281.03 470.67 1281.03 470.67 1281.03 470.67 1281.03 470.67"/><polygon class="cls-2" points="1098.15 783.78 1098.15 783.78 1098.15 783.78 1098.15 783.78"/><polygon class="cls-2" points="1281.03 783.78 1281.03 783.78 1281.03 783.78 1281.03 783.78"/><polygon class="cls-2" points="1372.47 627.22 1372.47 627.22 1372.47 627.22 1372.47 627.22"/><polygon class="cls-2" points="1189.59 627.22 1189.59 627.22 1189.59 627.22 1189.59 627.22"/><polygon class="cls-2" points="1372.47 940.34 1372.47 940.34 1372.47 940.34 1372.47 940.34"/><polygon class="cls-2" points="1189.59 940.34 1189.59 940.34 1189.59 940.34 1189.59 940.34"/><polygon class="cls-1" points="732.39 157.55 732.39 157.55 732.39 157.56 732.39 157.55"/><polygon class="cls-2" points="92.31 627.23 92.31 627.23 92.31 627.23 92.31 627.23"/><polygon class="cls-3" points="1098.15 470.67 1189.59 314.11 1281.03 470.67 1098.15 470.67"/><polygon class="cls-3" points="640.95 940.35 458.07 940.35 549.51 783.79 640.95 940.35"/><polygon class="cls-3" points="183.75 783.79 183.75 783.79 92.31 940.34 92.31 940.34 0.87 783.79 0.87 783.79 183.75 783.79"/><polygon class="cls-2" points="0.87 783.79 0.87 783.79 0.87 783.79 0.87 783.79"/><polygon class="cls-2" points="1006.71 627.23 1006.71 627.23 1006.71 627.23 1006.71 627.23"/><polygon class="cls-2" points="915.27 783.79 915.27 783.79 915.27 783.79 915.27 783.79"/><polygon class="cls-1" points="823.83 314.11 823.83 314.11 823.83 314.11 823.83 314.11"/><polygon class="cls-1" points="915.27 470.67 915.27 470.67 915.27 470.67 915.27 470.67"/><polygon class="cls-2" points="275.19 627.23 275.19 627.23 275.19 627.23 275.19 627.23"/><polygon class="cls-2" points="458.07 627.23 458.07 627.23 458.07 627.23 458.07 627.23"/><polygon class="cls-1" points="183.75 470.67 183.75 470.67 183.75 470.67 183.75 470.67"/><polygon class="cls-2" points="640.95 627.23 640.95 627.23 640.95 627.23 640.95 627.23"/><polygon class="cls-1" points="0.87 470.67 0.87 470.67 0.87 470.67 0.87 470.67"/><polygon class="cls-2" points="366.63 783.79 366.63 783.79 366.63 783.79 366.63 783.79"/><polygon class="cls-2" points="549.51 783.79 549.51 783.79 549.51 783.79 549.51 783.79"/><polygon class="cls-2" points="732.39 783.79 732.39 783.79 732.39 783.79 732.39 783.79"/><polygon class="cls-2" points="183.75 783.79 183.75 783.79 183.75 783.79 183.75 783.79"/><polygon class="cls-2" points="823.83 627.23 823.83 627.23 823.83 627.23 823.83 627.23"/><polygon class="cls-4" points="275.19 627.23 458.07 627.23 458.07 627.23 366.63 783.79 366.63 783.79 275.19 627.23 275.19 627.23"/><polygon class="cls-5" points="1281.03 157.55 1189.59 314.11 1189.59 314.11 1098.15 157.55 1098.15 157.55 1281.03 157.55 1281.03 157.55"/><polygon class="cls-6" points="366.63 783.79 183.75 783.79 275.19 627.23 366.63 783.79"/><polygon class="cls-5" points="640.95 627.23 823.83 627.23 823.83 627.23 732.39 783.79 732.39 783.79 640.95 627.23 640.95 627.23"/><polygon class="cls-1" points="366.63 470.67 366.63 470.67 366.63 470.67 366.63 470.67"/><polygon class="cls-1" points="549.51 470.67 549.51 470.67 549.51 470.67 549.51 470.67"/><polygon class="cls-1" points="732.39 470.67 732.39 470.67 732.39 470.67 732.39 470.67"/><polygon class="cls-6" points="1372.47 0.99 1281.03 157.55 1281.03 157.55 1189.59 0.99 1189.59 0.99 1372.47 0.99 1372.47 0.99"/><polygon class="cls-6" points="1372.47 940.34 1189.59 940.34 1281.03 783.78 1372.47 940.34"/><polygon class="cls-7" points="915.27 470.67 823.83 314.11 823.83 314.11 1006.71 314.11 1006.71 314.11 915.27 470.67 915.27 470.67"/><polygon class="cls-6" points="823.83 627.23 823.83 627.23 1006.71 627.23 1006.71 627.23 915.27 783.79 915.27 783.79 823.83 627.23"/><polygon class="cls-6" points="640.95 627.23 458.07 627.23 549.51 470.67 640.95 627.23"/><polygon class="cls-2" points="1189.59 940.35 1189.59 940.35 1189.59 940.35 1189.59 940.35"/><polygon class="cls-7" points="183.75 783.79 366.63 783.79 366.63 783.79 275.19 940.35 275.19 940.35 183.75 783.79 183.75 783.79"/><polygon class="cls-7" points="823.83 940.35 640.95 940.35 732.39 783.79 823.83 940.35"/><polygon class="cls-7" points="732.39 470.67 732.39 470.67 915.27 470.67 915.27 470.67 823.83 627.23 823.83 627.23 732.39 470.67"/><polygon class="cls-2" points="1006.71 940.35 1006.71 940.35 1006.71 940.35 1006.71 940.35"/><polygon class="cls-2" points="1189.59 627.23 1189.59 627.23 1189.59 627.23 1189.59 627.23"/><polygon class="cls-2" points="1098.15 783.79 1098.15 783.79 1098.15 783.79 1098.15 783.79"/><polygon class="cls-1" points="823.83 0.99 823.83 0.99 823.83 1 823.83 0.99"/><polygon class="cls-8" points="1098.15 157.55 1189.59 0.99 1281.03 157.55 1098.15 157.55"/><polygon class="cls-8" points="1281.03 783.78 1098.15 783.78 1189.59 627.22 1281.03 783.78"/><polygon class="cls-8" points="366.63 783.79 549.51 783.79 549.51 783.79 458.07 940.35 458.07 940.35 366.63 783.79 366.63 783.79"/><polygon class="cls-8" points="1006.71 627.23 823.83 627.23 915.27 470.67 1006.71 627.23"/><polygon class="cls-8" points="0.87 783.79 92.31 627.23 183.75 783.79 0.87 783.79"/><polygon class="cls-8" points="1098.15 470.67 1006.71 314.11 1006.71 314.11 1189.59 314.11 1189.59 314.11 1098.15 470.67 1098.15 470.67"/><polygon class="cls-1" points="1006.71 0.99 1006.71 1 1006.71 0.99 1006.71 0.99"/><polygon class="cls-1" points="1098.15 157.55 1098.15 157.56 1098.15 157.55 1098.15 157.55"/><polygon class="cls-1" points="1189.59 314.11 1189.59 314.11 1189.59 314.11 1189.59 314.11"/><polygon class="cls-2" points="823.83 940.35 823.83 940.35 823.83 940.35 823.83 940.35"/><polygon class="cls-2" points="640.95 940.35 640.95 940.35 640.95 940.35 640.95 940.35"/><polygon class="cls-2" points="275.19 940.35 275.19 940.35 275.19 940.35 275.19 940.35"/><polygon class="cls-2" points="458.07 940.35 458.07 940.35 458.07 940.35 458.07 940.35"/><polygon class="cls-1" points="915.27 157.55 915.27 157.56 915.27 157.55 915.27 157.55"/><polygon class="cls-2" points="92.31 940.35 92.31 940.34 92.31 940.34 92.31 940.35"/><polygon class="cls-1" points="1006.71 314.11 1006.71 314.11 1006.71 314.11 1006.71 314.11"/><polygon class="cls-9" points="1372.47 314.11 1372.47 314.11 1281.03 470.67 1281.03 470.67 1189.59 314.11 1189.59 314.11 1372.47 314.11"/><polygon class="cls-9" points="1189.59 314.11 1281.03 157.55 1372.47 314.11 1189.59 314.11"/><polygon class="cls-9" points="1189.59 627.22 1372.47 627.22 1372.47 627.22 1281.03 783.78 1281.03 783.78 1189.59 627.22 1189.59 627.22"/><polygon class="cls-9" points="458.07 940.35 275.19 940.35 366.63 783.79 458.07 940.35"/><polygon class="cls-9" points="1006.71 314.11 1098.15 470.67 915.27 470.67 1006.71 314.11"/><polygon class="cls-9" points="915.27 157.56 1006.71 314.11 823.83 314.11 915.27 157.56"/><polygon class="cls-9" points="366.63 470.67 275.19 627.23 275.19 627.23 183.75 470.67 183.75 470.67 366.63 470.67 366.63 470.67"/><polygon class="cls-9" points="915.27 783.79 732.39 783.79 823.83 627.23 915.27 783.79"/><polygon class="cls-9" points="915.27 783.79 915.27 783.79 1098.15 783.79 1098.15 783.79 1006.71 940.35 1006.71 940.35 915.27 783.79"/><polygon class="cls-9" points="1098.15 783.79 915.27 783.79 1006.71 627.23 1098.15 783.79"/><polygon class="cls-1" points="1098.15 470.67 1098.15 470.67 1098.15 470.67 1098.15 470.67"/><polygon class="cls-4" points="1281.03 470.67 1281.03 470.67 1189.59 627.22 1189.59 627.22 1098.15 470.67 1098.15 470.67 1281.03 470.67"/><polygon class="cls-4" points="1281.03 783.78 1281.03 783.78 1189.59 940.34 1189.59 940.34 1098.15 783.78 1098.15 783.78 1281.03 783.78"/><polygon class="cls-4" points="549.51 783.79 732.39 783.79 732.39 783.79 640.95 940.35 640.95 940.35 549.51 783.79 549.51 783.79"/><polygon class="cls-4" points="549.51 783.79 366.63 783.79 458.07 627.23 549.51 783.79"/><polygon class="cls-4" points="732.39 783.79 549.51 783.79 640.95 627.23 732.39 783.79"/><polygon class="cls-4" points="823.83 627.23 640.95 627.23 732.39 470.67 823.83 627.23"/><polygon class="cls-4" points="1098.15 157.55 1006.71 1 1006.71 0.99 1189.59 0.99 1189.59 1 1098.15 157.55 1098.15 157.55"/><polygon class="cls-4" points="1098.15 157.56 1189.59 314.11 1006.71 314.11 1098.15 157.56"/><polygon class="cls-4" points="1189.59 627.23 1006.71 627.23 1098.15 470.67 1189.59 627.23"/><polygon class="cls-1" points="1189.59 0.99 1189.59 1 1189.59 0.99 1189.59 0.99"/></g></g></svg>