<svg id="Triangles_lines_fix_" data-name="Triangles (lines fix)" xmlns="http://www.w3.org/2000/svg" viewBox="0 0 550.38 628.21"><defs><style>.cls-1{fill:#fff;}.cls-2{fill:#a3cf60;stroke:#a3cf60;}.cls-2,.cls-3,.cls-4,.cls-5,.cls-6,.cls-7{stroke-miterlimit:10;}.cls-3{fill:#f5bc49;stroke:#f5bc49;}.cls-4{fill:#43beac;stroke:#43beac;}.cls-5{fill:#282969;stroke:#282969;}.cls-6{fill:#f26724;stroke:#f26724;}.cls-7{fill:#c83192;stroke:#c83192;}</style></defs><polygon class="cls-1" points="275.19 627.23 275.19 627.23 275.19 627.22 275.19 627.23"/><polygon class="cls-2" points="-90.57 314.11 0.87 470.67 92.31 314.11 -90.57 314.11"/><polygon class="cls-1" points="458.07 627.23 458.07 627.23 458.07 627.22 458.07 627.23"/><polygon class="cls-1" points="0.87 157.55 0.87 157.55 0.87 157.55 0.87 157.55"/><polygon class="cls-1" points="183.75 470.67 183.75 470.67 183.75 470.67 183.75 470.67"/><polygon class="cls-1" points="183.75 157.55 183.75 157.55 183.75 157.55 183.75 157.55"/><polygon class="cls-1" points="366.63 157.55 366.63 157.55 366.63 157.55 366.63 157.55"/><polygon class="cls-1" points="92.31 314.11 92.31 314.11 92.31 314.11 92.31 314.11"/><polygon class="cls-1" points="549.51 157.55 549.51 157.55 549.51 157.55 549.51 157.55"/><polygon class="cls-1" points="92.31 627.23 92.31 627.23 92.31 627.22 92.31 627.23"/><polygon class="cls-1" points="0.87 470.67 0.87 470.67 0.87 470.67 0.87 470.67"/><polygon class="cls-1" points="275.19 0.99 275.19 0.99 275.19 0.99 275.19 0.99"/><polygon class="cls-1" points="458.07 0.99 458.07 0.99 458.07 0.99 458.07 0.99"/><polygon class="cls-1" points="92.31 0.99 92.31 0.99 92.31 0.99 92.31 0.99"/><polygon class="cls-1" points="549.51 470.67 549.51 470.67 549.51 470.67 549.51 470.67"/><polygon class="cls-1" points="366.63 470.67 366.63 470.67 366.63 470.67 366.63 470.67"/><polygon class="cls-3" points="183.75 470.67 183.75 470.67 92.31 627.22 92.31 627.23 275.19 627.23 275.19 627.22 183.75 470.67"/><polygon class="cls-3" points="92.31 314.11 0.87 157.55 0.87 157.55 -90.57 314.11 -90.57 314.11 92.31 314.11 92.31 314.11"/><polygon class="cls-3" points="-90.57 0.99 0.87 157.55 92.31 0.99 -90.57 0.99"/><polygon class="cls-3" points="275.19 314.11 275.19 314.11 183.75 470.67 183.75 470.67 366.63 470.67 366.63 470.67 275.19 314.11"/><polygon class="cls-3" points="458.07 0.99 275.19 0.99 366.63 157.55 458.07 0.99"/><polygon class="cls-4" points="183.75 157.55 183.75 157.55 92.31 0.99 92.31 0.99 0.87 157.55 0.87 157.55 183.75 157.55"/><polygon class="cls-4" points="458.07 627.22 549.51 470.67 366.63 470.67 458.07 627.22"/><polygon class="cls-4" points="0.87 157.55 92.31 314.11 183.75 157.55 0.87 157.55"/><polygon class="cls-4" points="366.63 157.55 549.51 157.55 549.51 157.55 458.07 0.99 458.07 0.99 366.63 157.55 366.63 157.55"/><polygon class="cls-1" points="275.19 314.11 275.19 314.11 275.19 314.11 275.19 314.11"/><polygon class="cls-1" points="458.07 314.11 458.07 314.11 458.07 314.11 458.07 314.11"/><polygon class="cls-5" points="92.31 314.11 183.75 470.67 275.19 314.11 92.31 314.11"/><polygon class="cls-6" points="275.19 314.11 183.75 157.55 183.75 157.55 92.31 314.11 92.31 314.11 275.19 314.11 275.19 314.11"/><polygon class="cls-6" points="183.75 157.55 366.63 157.55 366.63 157.55 275.19 0.99 275.19 0.99 183.75 157.55 183.75 157.55"/><polygon class="cls-6" points="366.63 157.55 183.75 157.55 275.19 314.11 366.63 157.55"/><polygon class="cls-6" points="275.19 314.11 458.07 314.11 458.07 314.11 366.63 157.55 366.63 157.55 275.19 314.11 275.19 314.11"/><polygon class="cls-7" points="183.75 470.67 92.31 314.11 92.31 314.11 0.87 470.67 0.87 470.67 183.75 470.67 183.75 470.67"/><polygon class="cls-7" points="0.87 470.67 92.31 627.22 183.75 470.67 0.87 470.67"/><polygon class="cls-7" points="549.51 157.55 366.63 157.55 458.07 314.11 549.51 157.55"/><polygon class="cls-1" points="0.87 157.54 0.87 157.54 0.87 157.54 0.87 157.54"/><polygon class="cls-1" points="0.87 470.66 0.87 470.66 0.87 470.66 0.87 470.66"/></svg>